<svg xmlns="http://www.w3.org/2000/svg" width="240" height="324" fill="none" id="man">
  <path fill="#fff" fill-rule="evenodd" d="M198.116 286.314c4.083-.198 2.441-7.342 2.148-9.966-3.233-9.584-2.473-20.04-3.744-30.085-.792-9.377-1.81-18.725-2.666-28.095-1.681-19.02-13.755-57.74-27.533-63.967-1.735-7.619-8.904-14.73-17.973-14.73-6.186-7.325-13.632-12.481-23.182-11.44-3.946.18-7.774 4.367-11.555 5.176-2.117.292-20.908-.46-24.672 1.776-2.621 1.347-4.988 3.836-4.217 7.004 1.23 3.839-2.593-.315-10.567 3.782-16.26 9.769-6.543 22.839-6.113 23.243-10.147 14.124-19.015 25.581-23.119 42.844-2.66 12.816-2.36 26.046-4.588 38.928-.787 4.467-1.994 8.781-3.3 13.118-1.415 5.677-2.103 19.825-2.884 19.952-1.421.353.822 3.272 2.327 3.274 41.752 6.929 84.162.287 126.137-.798 11.83-.411 23.672-.506 35.501-.016Z" clip-rule="evenodd"></path>
  <path fill="#000" fill-rule="evenodd" d="M134.835 170.258a.149.149 0 0 1 .297 0l.294 2.847c.359 3.477.704 6.947.955 10.44.312 4.355.52 8.71.621 13.076.351 15.203.42 30.415.45 45.623a1268.578 1268.578 0 0 1 10.356-.674l3.56-.216 1.465-.09c.99-.061 2.115-.311 2.807.567.278.351.417.808.158 1.225-.596.962-1.511.928-2.547.97-.977.039-1.953.078-2.93.115-2.094.082-4.187.158-6.281.217a580.19 580.19 0 0 1-6.591.149c-.022 6.421-.288 12.833-.575 19.246l-.13 2.886c-.351 7.804-.729 15.615-1.266 23.409-.044.638-.946.637-.99 0-.605-8.777-1.004-17.573-1.399-26.362a586.544 586.544 0 0 1-.533-19.122c-.291.002-.581.006-.871.007-8.246.036-16.489.072-24.734-.005a.215.215 0 0 1 .037.054c.596 1.409.653 3.207.638 4.719a23.19 23.19 0 0 1-.649 5.134c-1.431 6.043-5.12 11.454-9.323 15.929l-.137.145c-.992 1.048-2.129 2.101-2.737 3.435-.622 1.363-.838 2.957-1.145 4.421l-.036.169-1.2 5.543c-.38 1.76-.489 4.328-1.882 5.598-1.3 1.185-3.021.566-3.633-.96-.478-1.191-.002-2.499.281-3.689l2.217-9.32c.364-1.52.762-3.05 1.548-4.416.805-1.398 1.985-2.412 3.19-3.449a39.539 39.539 0 0 0 6.145-6.648c1.77-2.434 3.282-5.117 4.343-7.938.531-1.412.966-2.88 1.267-4.359.285-1.403.283-2.857.588-4.245.021-.096.102-.162.194-.191-.022-.062.012-.146.099-.151l6.743-.434c5.994-.387 11.988-.783 17.976-1.237l1.058-.076c-.082-8.506-.012-17.013.142-25.522.14-7.803.143-15.608.375-23.41.116-3.872.364-7.735.641-11.599.283-3.952.736-7.871 1.144-11.811Zm-63.316 45.243c-.072-.433.473-.702.725-.305 2.87 4.527 4.255 9.445 4.839 14.744.515 4.676.363 9.419.107 14.108-.274 5-.593 9.999-.916 14.997l-.497 7.664-1.245 19.214c-.09 1.374-.401 2.624-1.584 3.263-.15.125-.306.237-.488.335-.639.341-1.487.169-1.856-.487l.148.097c.13.082-.016-.032-.435-.34l-.355-.46a2.896 2.896 0 0 1-.49-1.232c-.103-.718.03-1.505.077-2.226l.817-12.599c.635-9.795 1.376-19.587 1.935-29.386.26-4.568.442-9.139.319-13.715-.123-4.55-.355-9.177-1.1-13.672Zm24.84-84.34.16-.027c5.703-.948 11.904-.77 17.116 1.98.043.022.024.094-.025.092l-1.677-.067c-5.311-.208-10.606-.331-15.828.917l-.535.129c-1.88.459-3.844 1.021-5.355 2.263-1.444 1.188-2.163 3.02-2.854 4.707l-.092.223c-.702 1.665-1.59 3.245-3.127 4.287-1.99 1.349-4.386 1.184-6.669 1.367-4.02.323-7.306 3.238-8.942 6.804-.99 2.16-1.412 4.581-1.496 6.943-.043 1.202-.049 2.451.111 3.646.051.382.523 1.773.764 1.74.535-.075 1.023.204 1.19.632a88.35 88.35 0 0 1 4.083-3.712 78.42 78.42 0 0 1 11.228-7.997c3.026-1.771 6.22-3.525 9.525-4.852a1.576 1.576 0 0 0-.77.177c-.11.057-.218-.08-.132-.171 1.041-1.096 2.289-1.252 3.546-.96.269-.085.537-.168.807-.246.134-.039.2.146.091.217l-.309.197c1.372.46 2.719 1.364 3.785 2.077 3.063 2.047 5.759 4.551 8.492 7.007l.497.446c2.406 2.149 4.872 4.237 7.606 5.96 1.43.903 2.933 1.737 4.509 2.358 1.352.533 3.553.868 4.187 2.298.562.684.327 1.556-.332 2.017-1.112 1.224-3.335.433-4.66-.077a31.375 31.375 0 0 1-4.62-2.219c-2.864-1.683-5.505-3.774-7.966-5.999-2.57-2.324-4.993-4.793-7.493-7.19-1.083-1.039-2.14-2.102-3.225-3.139l-.545-.516c-.553-.519-1.342-1.329-2.185-1.819-1.589.948-3.202 1.857-4.776 2.83-2.197 1.357-4.33 2.812-6.43 4.315a98.442 98.442 0 0 0-11.43 9.608c-6.521 6.371-12.078 13.646-16.932 21.348l-.37.587c-2.758 4.409-5.366 8.96-7.216 13.832-2.035 5.361-3.025 10.998-3.562 16.689-.534 5.65-.714 11.328-1.31 16.973-.612 5.789-1.817 11.45-3.188 17.101l-.327 1.339c-1.24 5.061-2.52 10.122-3.158 15.302-.34 2.767-.545 5.572-.499 8.361.047 2.806.488 5.549.843 8.325.136 1.064-.91 1.952-1.846 2.092-1.077.162-2.001-.525-2.336-1.525-1.043-3.119-1.233-6.567-1.2-9.841.033-3.323.457-6.625 1.053-9.891 1.174-6.425 2.985-12.716 4.5-19.064 1.335-5.595 2.23-11.2 2.713-16.931.502-5.947.802-11.913 1.717-17.817.902-5.828 2.6-11.395 5.162-16.709 2.333-4.839 5.24-9.393 8.288-13.808 3.702-5.36 7.768-10.461 12.312-15.109a2.514 2.514 0 0 1-1.212-.39c-1.178-.735-1.726-2.172-1.895-3.484-.395-3.071-.3-6.276.49-9.278 1.273-4.842 4.578-9.145 9.367-10.89 1.233-.45 2.544-.614 3.85-.646 1.24-.031 2.594.131 3.79-.262 1.904-.627 2.72-2.87 3.435-4.57l.033-.078c.917-2.167 2.017-4.025 4.002-5.378 2.119-1.444 4.773-2.1 7.272-2.524Zm54.19 8.57c1.713-.595 3.856-.055 5.532.464 1.867.579 3.593 1.646 5.072 2.912a15.317 15.317 0 0 1 3.762 4.828l.087.177c.832 1.71 1.78 4.056 1.36 5.934a1.826 1.826 0 0 1-.041.154c3.4 1.675 6.54 3.772 9.275 6.43 3.184 3.096 5.881 6.618 8.162 10.423 9.062 15.113 10.657 33.264 11.728 50.499l.267 4.37c.581 9.437 1.261 18.851 3.027 28.157l.129.672c1.889 9.744 4.592 19.562 4.318 29.558-.082 2.995-4.506 2.974-4.635 0-.483-11.196-3.094-22.006-4.863-33.027-3.112-19.389-1.552-39.379-5.962-58.574-1.73-7.533-4.41-14.84-8.238-21.564-1.89-3.322-4.053-6.532-6.587-9.397-2.18-2.466-4.446-4.839-6.994-6.912-.814.816-2.441.4-2.866-.789-.292-.818-.207-1.773-.394-2.629a13.112 13.112 0 0 0-.733-2.331 15.359 15.359 0 0 0-2.651-4.129 17.003 17.003 0 0 0-4.004-3.284c-1.509-.901-3.16-1.17-4.751-1.828-.054-.022-.059-.094 0-.114Zm6.658 103.623a.091.091 0 0 1 .153-.063c.6.553.964 1.347 1.406 2.028.51.784 1.045 1.553 1.607 2.301 1.125 1.5 2.378 2.913 3.64 4.298a51.996 51.996 0 0 0 3.724 3.685c1.407 1.26 2.983 2.384 4.261 3.78 2.667 2.911 3.098 6.907 3.66 10.659l.062.406c.343 2.227.65 4.46.927 6.696.135 1.087.27 2.176.379 3.266l.034.346c.098 1.067.124 2.15-.488 3.083-.656.998-2.148 1.347-3.034.391-1.524-1.644-1.238-4.564-1.436-6.678a208.96 208.96 0 0 0-.558-5.239l-.106-.872c-.245-1.983-.444-4.007-.897-5.956-.4-1.716-1.162-3.012-2.413-4.256-1.259-1.252-2.568-2.422-3.731-3.771a37.303 37.303 0 0 1-3.347-4.566c-.857-1.369-1.545-2.86-2.174-4.348l-.105-.249c-.608-1.451-1.611-3.341-1.564-4.941Zm21.996-62.357c.013-.203.312-.206.317 0l.11 5.225c.291 14.034.111 28.101 1.519 42.087.664 6.594 1.886 13.091 3.3 19.562.724 3.311 1.484 6.613 2.205 9.925.703 3.227 1.457 6.47 2.015 9.727.548 3.201 1.039 6.427 1.259 9.669l.027.423c.095 1.571.548 3.881-.317 5.273-.936 1.508-2.73 1.535-3.734.095-.942-1.351-.708-3.756-.874-5.368a232.496 232.496 0 0 0-.552-4.926c-.396-3.197-.919-6.387-1.462-9.562-1.132-6.613-2.773-13.142-3.985-19.745-1.242-6.765-2.124-13.578-2.162-20.466-.037-6.946.698-13.879 1.069-20.811.377-7.039.806-14.074 1.265-21.108Zm-66.271-43.651c.377-1.269 1.706-2.062 3.003-1.706 1.188.327 2.169 1.77 1.705 3.004-.507 1.347-1.393 2.496-2.14 3.721-.69 1.131-1.697 2.022-2.4 3.133l.775.835c.387.417.776.831 1.169 1.238l1.351 1.4a133.098 133.098 0 0 0 3.199 3.221c3.201 3.089 6.453 6.076 10.038 8.721a60.565 60.565 0 0 0 2.484 1.761l.316.209c.58.38 1.227.754 1.928.689 1.702-.156 3.241-1.965 4.411-3.091l.061-.059c2.9-2.76 5.585-5.777 7.932-9.022a66.37 66.37 0 0 0 1.518-2.196c-1.135-1.326-.864-3.915-.927-5.523-.044-1.131-.047-2.262-.054-3.394l-.003-.228c-.013-.733-.046-1.436.429-2.038.027-.035.085-.034.12-.016.651.341.851.913 1.129 1.553l.029.067c.338.769.662 1.545.989 2.319.343.81.658 1.632.976 2.451.148.381.29.764.428 1.149.085.246.172.49.261.735l.022.018c.118.101.218.207.305.316.363.182.651.513.787 1 .295 1.059-.315 1.922-.859 2.763-2.21 3.415-4.729 6.67-7.53 9.622a63.992 63.992 0 0 1-4.377 4.197l-.266.23c-1.368 1.177-2.854 2.291-4.681 2.566-2.139.322-3.879-.742-5.517-1.967l-.163-.123a90.88 90.88 0 0 1-4.546-3.665c-3.004-2.594-5.862-5.38-8.398-8.436-2.467-2.973-4.906-6.297-6.427-9.875-.092-.217.151-.446.342-.264a53.744 53.744 0 0 1 2.164 2.209c.02-1.112-.185-2.233-.071-3.352.139-1.36.099-2.863.488-4.172Z" clip-rule="evenodd"></path>
  <path fill="#fff" fill-rule="evenodd" d="M166.991 109.396c-1.325-9.563-4.355-18.847-4.79-28.552l-.776-12.46c-.098-2.595-3.467-3.47-4.754-1.172-2.924-3.244-8.161-2.767-12.156-2.668-23.52.834-45.871 16.742-53.945 38.923-.194.529-.135 1.092.084 1.595-3.763 12.555 9.546 20.638 18.623 26.236 3.682 3.893 8.01 7.127 12.897 9.342a45.248 45.248 0 0 0 18.092 4.262c1.363.031 2.182-1.072 2.281-2.213 1.982-.462 5.373.071 6.421-1.96 11.95-5.193 19.737-18.354 18.023-31.333Z" clip-rule="evenodd"></path>
  <path fill="#000" fill-rule="evenodd" d="M161.399 75.485c-.034-.31.414-.32.506-.069.757 2.065 1.543 4.115 2.143 6.231.578 2.04.995 4.126 1.417 6.203.699 3.447 1.301 6.92 1.799 10.403 1.063-.83 2.455-.906 3.765-.26.615.304.85 1.106.702 1.728-.118.499-.263.996-.436 1.482.371.329.686.734.915 1.2.604 1.226.409 2.512-.132 3.682.041.069.082.14.121.214.783 1.521.364 2.884-.209 4.369-.428 1.11-.189 2.361-1.113 3.2a8.522 8.522 0 0 1-1.505 2.86c-.16.292-.398.527-.682.7a31.702 31.702 0 0 1-.566 4.864c-1.256 6.251-5.243 11.821-10.177 15.75-4.829 3.844-10.5 6.141-16.619 6.884-2.971.361-5.947.247-8.894-.268l-.367-.065c-2.719-.494-6.01-1.311-7.89-3.363-.989-1.079-.411-3.454 1.337-3.23.926.119 1.732.267 2.605.609.68.267 1.361.524 2.059.742 1.338.416 2.721.741 4.109.921 2.893.374 5.9.275 8.759-.29 5.2-1.026 10.253-3.393 14.199-6.957 4.587-4.143 7.276-9.506 7.672-15.69.44-6.888-.355-13.941-1.015-20.793a211.02 211.02 0 0 0-1.303-10.664c-.513-3.462-.821-6.918-1.2-10.393Zm-40.596-22.242.222-.034c8.831-1.344 18.123-1.249 26.423 2.397 1.591.7 3.148 1.542 4.614 2.521 1.051-.11 2.107-.199 3.144-.213 1.306-.017 2.58.661 2.74 1.982 1.223.152 2.35.602 3.07 1.503a2.9 2.9 0 0 1 .564 1.18c.752.177 1.489.45 2.189.809.849.437 1.339 1.654 1.039 2.555a6.51 6.51 0 0 1-.236.598l-.068.146.04.055c.678 1.09.207 2.521-.832 3.172-.78.488-1.65.877-2.546 1.065.074.36.142.721.196 1.087.022.148-.168.253-.253.107 0 0 .321 1 .805 2.101.19.433-.418.818-.651.38-.617-1.166-.999-2.362-1.559-3.565a4.36 4.36 0 0 1-1.53-.378 1.693 1.693 0 0 1-.749-.695c-.011.012-.017.027-.028.042-1.667 2.145-4.925 2.897-7.443 3.576-2.704.73-5.472 1.18-8.25 1.511-4.851.577-9.739.685-14.613.909l-.968.046c-1.979 1.738-4.529 2.817-7.144 3.146a12.991 12.991 0 0 1-4.379-.215 4.442 4.442 0 0 1-1.96 1.165c-.133 2.769-1.677 5.39-4.009 6.918l.041.164c.58 2.365.572 4.949-1.506 6.592a5.04 5.04 0 0 1-.912.57l.071.164c1.073 2.51 1.416 5.282-.602 7.364-.818.844-2.254.644-2.868-.324l-.03-.049c-.034-.058-.07-.113-.106-.17a.513.513 0 0 1-.262.259c-.767.33-1.073.087-1.773-.253a10.904 10.904 0 0 0-2.026-.738 11.683 11.683 0 0 0-1.705-.315c-3.604 1.378-5.932 5.605-5.379 9.572.3 2.16 1.486 4.299 3.552 5.195.904.393 1.967.558 2.945.425 1.325-.18 2.343-1.014 3.714-.537.541.188.879.613.908 1.194.049.913-.274 1.598-.819 2.105.961.803 1.736 1.919 2.571 2.809 1.044 1.114 2.102 2.228 3.23 3.255a28.783 28.783 0 0 0 3.397 2.682l.126.083c1.504.98 3.398 1.849 3.47 3.897.023.617-.351 1.183-.858 1.498-1.895 1.175-3.957-.368-5.442-1.498a33.785 33.785 0 0 1-1.739-1.414 2.483 2.483 0 0 1-1.206-.22 8.477 8.477 0 0 1-.801-.406c-.851.214-1.654.026-2.315-.42-.953.234-1.963.262-2.82.074a4.734 4.734 0 0 1-2.06-1.04c-1.205.384-2.542.313-3.73-.417-.711-.437-1.267-1.061-1.57-1.79a1.608 1.608 0 0 1-.259-.831v-.118c-1.035.024-2.072-.332-2.873-1.151a3.98 3.98 0 0 1-1.135-2.645 5.198 5.198 0 0 1-2.719-1.838c-1.2-1.552-1.36-3.469-.743-5.181a3.186 3.186 0 0 1-.108-.276c-.957-1.351-1.589-2.98-1.538-4.614.006-.254.04-.503.09-.75-.942-.501-1.635-1.381-1.708-2.499a3.313 3.313 0 0 1 .826-2.384 4.171 4.171 0 0 1-.315-2.098 4.085 4.085 0 0 1 .727-1.913 2.94 2.94 0 0 1 .033-.592c-.038-.196-.07-.4-.086-.606-.18-2.266 1.384-4.249 3.287-5.295.5-.275 1.042-.499 1.583-.689.393-.14.984-.186 1.33-.441-.014-.011.13-.197.155-.296.027-.123.057-.243.072-.368.057-.524.014-1.063.004-1.59-.047-2.388.027-4.787.279-7.162.467-4.405 1.618-8.714 3.862-12.563 1.882-3.225 4.46-5.95 7.415-8.209 5.887-4.498 13.234-6.944 20.497-8.073ZM93.52 108.018c-.766-1.842 2.842-1.86 3.795-1.773l.029.003c2.147.214 5.503 1.247 6.382 3.414.363.897-.713 1.87-1.574 1.575-.843-.289-1.316-.909-1.993-1.452a8.731 8.731 0 0 0-.55-.403c.098.316.257.608.478.826l.052.049c1.039.934-.82 2.401-1.51 1.165a3.28 3.28 0 0 1-.399-2.127c.034-.221.093-.422.18-.615-.07-.034-.136-.071-.206-.104l-.123-.058c-.828-.375-4.356-1.849-4.328-.531.004.146-.186.146-.233.031Z" clip-rule="evenodd"></path>
  <path fill="#000" fill-rule="evenodd" d="M143.152 128.274a8.601 8.601 0 0 1-3.614-2.781 1.671 1.671 0 0 1-.338-1.297c.076-.467.352-.889.728-1.173.377-.284.849-.424 1.305-.353.397.062.791.279 1.104.73l.065.09a5.695 5.695 0 0 0 2.086 1.751 4.7 4.7 0 0 0 2.582.454c1.738-.196 2.935-1.136 4.208-2.413.158-.161.316-.327.474-.496a.746.746 0 0 1 .394-.303.864.864 0 0 1 .97.332c.097.143.153.32.135.524-.117 1.323-.808 2.503-1.79 3.43-1.091 1.03-2.537 1.742-3.898 1.992-1.499.275-3.027.078-4.411-.487Zm5.119-20.408c1.595.971 4.026 3.233 2.31 5.638-2.021 2.12-4.929-.311-6.362-1.411-1.329-.852-2.823 1.34-1.59 2.335 10.358 7.671 14.561-6.308 6.449-7.702-.894-.154-1.225.84-.807 1.14Zm-18.56-8.923c.176-2.189 3.508-2.686 3.84-.52.296 1.94-.053 3.723-.927 5.47-.834 1.668-2.932.89-3.091-.63-.213-2.037.068-2.958.178-4.32Zm25.365-.969c.465-.609 1.136-1.024 1.939-.79 2.511.735 1.771 4.301.889 6.037-.479.942-2.028 1.181-2.728.351-1.14-1.353-1.687-4.056-.236-5.39.039-.068.083-.138.136-.208Zm-22.487-8.608.397-.07c1.227-.212 2.752-.416 3.62.57.461.524.619 1.497 0 1.998-1.088.88-2.292.54-3.596.614a14.3 14.3 0 0 0-3.143.536c-2.272.65-4.123 1.835-6.063 3.137-.254.17-.514-.155-.393-.393 1.12-2.195 3.29-3.997 5.464-5.096 1.161-.587 2.43-1.073 3.714-1.296Zm20.198-.983.304.062c3.304.69 7.596 2.07 9.16 5.317.06.459-.003.557-.054.621l-.017.022c-.043.055-.076.13-.275.193a8.562 8.562 0 0 1-.168-.042c-.717-.188-1.284-.447-1.833-.716l-.596-.293c-.691-.34-1.388-.666-2.127-.907a25.038 25.038 0 0 0-4.844-1.07 1.988 1.988 0 0 1-.972-.37 1.464 1.464 0 0 1-.544-.827c-.116-.467-.082-.82.168-1.242.188-.316.458-.535.767-.661a1.798 1.798 0 0 1 1.031-.087Z" clip-rule="evenodd"></path>
  <path fill="#000" fill-rule="evenodd" d="M148.85 138.659s-9.378 1.379-13.576-.57c-4.185-1.942-8.256-3.821-12.052-6.394-3.89-2.636-7.19-5.766-9.545-9.772-2.191-3.728-4.012-7.684-5.846-11.609-.107-.23-1.16-2.51-1.532-3.275-.572-1.185-2.246-.813-2.246 1.027 0 1.841-.082 15.78 3.133 21.263 2.901 4.952 7.817 8.412 12.702 11.433 5.404 3.339 12.583 6.949 19.031 7.903 5.835.862 12.494-1.56 16.72-5.552 4.417-4.176 5.668-9.848 7.947-15.28.51-1.215-1.295-1.947-1.825-.753-.997 2.249-12.911 11.579-12.911 11.579Z" clip-rule="evenodd"></path>
  <path fill="#000" fill-rule="evenodd" d="M166.075 104.71c-.597 1.627-1.507 3.32-2.619 4.689-4.498 3.811-8.87 1.701-11.089-3.464-.844-3.651 1.396-7.583 3.768-10.268 3.427-3.436 9.02-1.633 10.595 2.452.096.53.154 1.057.181 1.584-.032 1.71-.238 3.171-.836 4.796m-43.242-3.069c5.926-7.052 17.014-7.43 16.731 3.424-1.273 13.739-22.711 10.367-16.731-3.424Zm45.106-5.883a9.872 9.872 0 0 0-.69-1.018c-.093-.056-.146-.547-.488-.583-4.569-5.043-12.596-2.182-15.496 2.843a8.186 8.186 0 0 0-1.28 2.165c-2.858-.525-6.189-.423-8.847.657-2.635-6.884-10.614-7.499-15.872-4.557-3.27 1.609-5.39 4.978-8.571 6.829-7.476.539-15.501-1.137-22.842.739-5.79 1.204-.95 4.137.021 2.18 6.922-2.046 15.122-.317 22.309-.778.747 1.264 2.18 2.299 3.608 2.255 1.543 13.679 21.483 11.411 22.171-.749.78-1.234 1.75-2.415 3.139-3.184.532-.11 1.046-.253 1.515-.475.803-.113 2.039.227 2.777.895 2.529 15.179 17.097 13.411 19.7.114.052-.053.197-.251.308-.569.891-1.179 3.072-1.617 2.724-3.607-.311-1.99-2.823-1.966-4.186-3.157Z" clip-rule="evenodd"></path>
</svg>
